<svg xmlns="http://www.w3.org/2000/svg" data-name="Layer 1" viewBox="0 0 80 80"><path d="M28,12a2,2,0,1,0,2,2A2.00229,2.00229,0,0,0,28,12Zm0,3a1,1,0,1,1,1-1A1.001,1.001,0,0,1,28,15ZM53,2.5H27A5.50654,5.50654,0,0,0,21.5,8V72A5.50654,5.50654,0,0,0,27,77.5H53A5.50654,5.50654,0,0,0,58.5,72V8A5.50654,5.50654,0,0,0,53,2.5ZM57.5,72A4.50491,4.50491,0,0,1,53,76.5H27A4.50491,4.50491,0,0,1,22.5,72V8A4.50491,4.50491,0,0,1,27,3.5H53A4.50491,4.50491,0,0,1,57.5,8ZM33,9a1,1,0,1,0-1-1A1,1,0,0,0,33,9ZM28,7a2,2,0,1,0,2,2A2.00229,2.00229,0,0,0,28,7Zm0,3a1,1,0,1,1,1-1A1.001,1.001,0,0,1,28,10Zm5.5-5h-6A3.50424,3.50424,0,0,0,24,8.5v6A3.50424,3.50424,0,0,0,27.5,18h6A3.50424,3.50424,0,0,0,37,14.5v-6A3.50424,3.50424,0,0,0,33.5,5ZM36,14.5A2.50263,2.50263,0,0,1,33.5,17h-6A2.50263,2.50263,0,0,1,25,14.5v-6A2.50263,2.50263,0,0,1,27.5,6h6A2.50263,2.50263,0,0,1,36,8.5Zm-3-5a2,2,0,1,0,2,2A2.00229,2.00229,0,0,0,33,9.5Zm0,3a1,1,0,1,1,1-1A1.001,1.001,0,0,1,33,12.5Zm0,2a.5.5,0,1,0,.5.5A.5.5,0,0,0,33,14.5Z"/></svg>